<svg xmlns="http://www.w3.org/2000/svg" viewBox="0 0 24 24" fill="#FF2D20">
  <path d="M23.642 5.43a.364.364 0 01.014.1v5.149c0 .135-.073.26-.189.326l-4.323 2.49v4.934a.378.378 0 01-.188.326L9.93 23.393a.362.362 0 01-.058.025.407.407 0 01-.04.01.36.36 0 01-.177 0 .407.407 0 01-.04-.01.362.362 0 01-.057-.025L.566 18.755a.378.378 0 01-.188-.326V2.956c0-.035.005-.069.014-.1a.378.378 0 01.02-.06.37.37 0 01.016-.027l.001-.005a.376.376 0 01.023-.033c.005-.007.01-.013.016-.019a.376.376 0 01.027-.022c.006-.005.012-.01.019-.014L5.044.05a.378.378 0 01.378 0L9.56 2.428a.378.378 0 01.188.327v9.81l3.76-2.169V5.429a.378.378 0 01.189-.326L18.02.05a.378.378 0 01.378 0l4.434 2.557a.378.378 0 01.181.235c.008.029.014.06.014.09l.015.498z"/>
</svg>
