<svg xmlns="http://www.w3.org/2000/svg" viewBox="0 0 24 24" fill="#512BD4">
  <path d="M24 8.77h-2.468v7.565h-1.425V8.77h-2.462V7.53H24zm-6.852 7.565h-4.821V7.53h4.63v1.24h-3.205v2.494h2.953v1.234h-2.953v2.604h3.396zm-6.708 0H8.882L4.78 9.863c-.162-.26-.3-.535-.413-.818h-.056c.05.282.075.798.075 1.546v5.744H3V7.53h1.645l3.96 6.386c.21.34.356.588.437.742h.038c-.063-.407-.094-.895-.094-1.465V7.53h1.404zM0 15.664a.862.862 0 01-.864-.864.862.862 0 01.864-.863c.48 0 .863.384.863.863a.862.862 0 01-.863.864z"/>
</svg>

