<svg xmlns="http://www.w3.org/2000/svg" viewBox="0 0 24 24" fill="#EF4223">
  <path d="M12.03 0C8.408 0 5.97 2.49 5.97 2.49s2.36-.77 4.26.53c1.2.82 1.58 2.44 3.14 3.62 1.33.99 2.92.48 3.71-.33.96-.98 1.01-2.25.29-3.35C16.3.65 14.26-.01 12.03 0zM7.29 3.9c-.6 0-1.14.17-1.6.46-.5.31-.9.78-1.14 1.38-.54 1.35-.04 3.12 1.28 4.44 1.61 1.61 2.3 3.5 1.63 5.47 1.52-1.01 2.34-2.65 2.2-4.35-.1-1.13-.6-2.14-1.21-3.07-.68-1.03-1.41-2.06-1.17-3.45.01-.3.01-.59.01-.88zM5.91 10.41c-1.08.72-1.97 1.87-2.39 3.22-.27.87-.31 1.79-.1 2.67.39 1.61 1.57 3.01 3.25 3.73 2 .85 4.27.55 6.08-.8.28-.21.55-.44.8-.69.25-.25.48-.52.69-.8.42-.57.72-1.21.89-1.87.34-1.32.14-2.74-.56-3.92-.49-.82-1.21-1.48-2.05-1.93-.19-.1-.38-.19-.58-.27-.2-.08-.4-.15-.6-.2-.4-.1-.8-.15-1.21-.15-.42 0-.84.05-1.27.16-.53.14-1.04.37-1.48.7l-.09.07c-.12.1-.24.2-.34.32-.1.12-.2.24-.29.37-.09.13-.17.26-.24.4-.13.25-.23.51-.3.78-.02.07-.03.14-.04.21z"/>
</svg>
