<svg xmlns="http://www.w3.org/2000/svg" viewBox="0 0 24 24" fill="#1A171B">
  <path d="M12 0C5.373 0 0 5.373 0 12s5.373 12 12 12 12-5.373 12-12S18.627 0 12 0zm.37 4.866c1.38-.041 2.7.512 3.547 1.55a.434.434 0 01-.093.623.44.44 0 01-.612-.09c-.657-.823-1.672-1.258-2.768-1.225-1.55.046-2.806 1.03-2.768 2.189.016.491.258.915.836 1.307.243.164.53.3.916.455.192.078.402.158.64.245.546.2 1.026.395 1.417.615.95.529 1.437 1.222 1.466 2.045.048 1.358-.818 2.516-2.146 3.062a4.538 4.538 0 01-1.723.336c-1.67.05-3.207-.683-3.985-1.888a.434.434 0 01.123-.608.44.44 0 01.614.122c.618.938 1.876 1.514 3.266 1.472.955-.028 1.81-.354 2.361-.893a1.87 1.87 0 00.572-1.463c-.018-.522-.293-.95-.876-1.278-.306-.17-.686-.323-1.23-.522a17.6 17.6 0 01-.655-.25c-.443-.176-.774-.334-1.06-.524-.77-.516-1.162-1.195-1.187-2.02-.054-1.547 1.28-2.878 3.145-2.93z"/>
</svg>
